<?xml version="1.0" encoding="UTF-8"?>
<svg version="1.1" xmlns="http://www.w3.org/2000/svg" width="912" height="356">
<path d="M0 0 C1.65625 1.3203125 1.65625 1.3203125 3.90625 3.4453125 C3.90625 4.1053125 3.90625 4.7653125 3.90625 5.4453125 C4.89625 5.7753125 5.88625 6.1053125 6.90625 6.4453125 C6.90625 7.1053125 6.90625 7.7653125 6.90625 8.4453125 C7.56625 8.4453125 8.22625 8.4453125 8.90625 8.4453125 C8.90625 9.1053125 8.90625 9.7653125 8.90625 10.4453125 C9.89625 10.7753125 10.88625 11.1053125 11.90625 11.4453125 C13.75179486 13.59496976 15.43394816 15.72112044 17.09375 18.0078125 C17.5791626 18.67385498 18.0645752 19.33989746 18.56469727 20.02612305 C23.57254321 27.09121949 27.34543155 34.57269729 30.90625 42.4453125 C31.53660156 43.80076172 31.53660156 43.80076172 32.1796875 45.18359375 C37.31204875 56.97258896 38.39495488 69.22299933 38.28125 81.9453125 C38.29285156 83.24339844 38.30445313 84.54148437 38.31640625 85.87890625 C38.25865546 105.1484214 32.57645935 122.91956568 22.90625 139.4453125 C22.24625 139.4453125 21.58625 139.4453125 20.90625 139.4453125 C20.679375 140.1465625 20.4525 140.8478125 20.21875 141.5703125 C18.56783712 145.18659785 16.6153665 147.53301226 13.90625 150.4453125 C13.24625 150.4453125 12.58625 150.4453125 11.90625 150.4453125 C11.638125 151.0846875 11.37 151.7240625 11.09375 152.3828125 C9.90625 154.4453125 9.90625 154.4453125 6.90625 155.4453125 C6.90625 156.1053125 6.90625 156.7653125 6.90625 157.4453125 C6.24625 157.4453125 5.58625 157.4453125 4.90625 157.4453125 C4.57625 158.4353125 4.24625 159.4253125 3.90625 160.4453125 C3.24625 160.4453125 2.58625 160.4453125 1.90625 160.4453125 C1.90625 161.1053125 1.90625 161.7653125 1.90625 162.4453125 C-0.1484375 163.9609375 -0.1484375 163.9609375 -2.96875 165.6953125 C-3.97164062 166.3140625 -4.97453125 166.9328125 -6.0078125 167.5703125 C-7.02617187 168.1890625 -8.04453125 168.8078125 -9.09375 169.4453125 C-9.98835937 170.0021875 -10.88296875 170.5590625 -11.8046875 171.1328125 C-22.3639817 177.6308397 -22.3639817 177.6308397 -28.34765625 178.9375 C-31.94997991 179.80395676 -34.33899284 180.45361892 -36.63671875 183.47265625 C-37.97612362 186.08140481 -39.05002774 188.70554157 -40.09375 191.4453125 C-40.485625 192.28320312 -40.8775 193.12109375 -41.28125 193.984375 C-44.92076862 202.35021293 -46.22485907 212.82433353 -42.9296875 221.515625 C-41.59582004 224.10570686 -41.59582004 224.10570686 -40.08984375 226.33203125 C-38.38848493 229.94158075 -39.88699693 232.82505329 -41.09375 236.4453125 C-41.75375 236.4453125 -42.41375 236.4453125 -43.09375 236.4453125 C-43.09375 237.1053125 -43.09375 237.7653125 -43.09375 238.4453125 C-48.0995686 242.34831665 -53.39134273 242.15822488 -59.48046875 241.9140625 C-63.7492061 241.36028036 -65.89097071 240.50200442 -68.796875 237.37890625 C-71.0976213 233.94857668 -72.70565383 230.32508441 -74.09375 226.4453125 C-74.97417969 226.43113281 -75.85460937 226.41695312 -76.76171875 226.40234375 C-86.30907727 226.01027686 -86.30907727 226.01027686 -90.21875 223.1953125 C-90.8375 222.2878125 -91.45625 221.3803125 -92.09375 220.4453125 C-92.61324219 219.69378906 -93.13273437 218.94226563 -93.66796875 218.16796875 C-95.32080569 215.01172944 -95.58667634 212.67405304 -95.78125 209.1328125 C-95.84699219 208.06417969 -95.91273438 206.99554688 -95.98046875 205.89453125 C-96.01785156 205.08628906 -96.05523437 204.27804687 -96.09375 203.4453125 C-97.70443359 204.16847656 -97.70443359 204.16847656 -99.34765625 204.90625 C-100.7837468 205.54451247 -102.21995079 206.18251972 -103.65625 206.8203125 C-104.36072266 207.13742187 -105.06519531 207.45453125 -105.79101562 207.78125 C-115.6065565 212.1236091 -124.99950936 214.62899463 -135.40625 210.7578125 C-140.7990888 208.31819495 -144.5817053 205.66297806 -147.96875 200.6953125 C-149.78230399 195.45615652 -150.11016007 190.67173457 -147.78125 185.5703125 C-145.20297698 182.32359832 -143.07969212 179.84577865 -139.09375 178.4453125 C-132.19152015 177.89642742 -132.19152015 177.89642742 -129.09375 179.4453125 C-127.39011178 179.67153331 -125.68046299 179.85419723 -123.96875 180.0078125 C-123.05867188 180.09160156 -122.14859375 180.17539063 -121.2109375 180.26171875 C-120.51226562 180.32230469 -119.81359375 180.38289062 -119.09375 180.4453125 C-119.09375 179.7853125 -119.09375 179.1253125 -119.09375 178.4453125 C-117.59375 176.8203125 -117.59375 176.8203125 -116.09375 175.4453125 C-119.25085655 172.76655543 -122.44146805 170.65176866 -126.05859375 168.6484375 C-131.29086335 165.55527236 -137.11570044 162.10789656 -141.09375 157.4453125 C-141.09375 156.7853125 -141.09375 156.1253125 -141.09375 155.4453125 C-141.95226562 155.105 -141.95226562 155.105 -142.828125 154.7578125 C-145.71504471 153.08539005 -147.28845494 151.06391065 -149.34375 148.4453125 C-150.40335938 147.115 -150.40335938 147.115 -151.484375 145.7578125 C-153.09375 143.4453125 -153.09375 143.4453125 -153.09375 141.4453125 C-153.75375 141.4453125 -154.41375 141.4453125 -155.09375 141.4453125 C-168.0604014 123.38095383 -172.30814721 103.68078526 -172.46875 81.8203125 C-172.48284912 80.522146 -172.49694824 79.22397949 -172.51147461 77.88647461 C-172.45224704 66.04770882 -170.62033821 54.78755946 -165.90625 43.8828125 C-165.45668945 42.82030273 -165.45668945 42.82030273 -164.99804688 41.73632812 C-160.78687735 32.08971093 -155.16803402 23.42059281 -148.5390625 15.25 C-146.93186152 13.29689805 -146.93186152 13.29689805 -145.09375 10.4453125 C-144.43375 10.4453125 -143.77375 10.4453125 -143.09375 10.4453125 C-143.09375 9.7853125 -143.09375 9.1253125 -143.09375 8.4453125 C-138.09045079 3.27841768 -132.02879287 -1.50358977 -126.09375 -5.5546875 C-125.43375 -5.5546875 -124.77375 -5.5546875 -124.09375 -5.5546875 C-124.09375 -6.2146875 -124.09375 -6.8746875 -124.09375 -7.5546875 C-121.59627977 -8.83070081 -119.09597064 -10.10054921 -116.59375 -11.3671875 C-115.89765625 -11.72361328 -115.2015625 -12.08003906 -114.484375 -12.44726562 C-107.34868327 -16.0481471 -100.19188461 -18.6489668 -92.46875 -20.6796875 C-91.21835938 -21.01226562 -89.96796875 -21.34484375 -88.6796875 -21.6875 C-57.25752395 -29.28632387 -25.26830943 -18.7626626 0 0 Z M-79.09375 184.4453125 C-79.75375 185.7653125 -80.41375 187.0853125 -81.09375 188.4453125 C-81.75375 188.4453125 -82.41375 188.4453125 -83.09375 188.4453125 C-85.17081482 191.22702146 -85.17081482 191.22702146 -87.09375 194.4453125 C-87.5475 195.1053125 -88.00125 195.7653125 -88.46875 196.4453125 C-89.41379134 199.46944478 -88.12323725 201.46521782 -87.09375 204.4453125 C-86.78936493 207.31464913 -86.59492883 210.17373995 -86.4375 213.0546875 C-86.31129194 215.62728244 -86.31129194 215.62728244 -84.09375 217.4453125 C-81.40535615 217.71523156 -78.80233064 217.53268607 -76.09375 217.4453125 C-74.64085585 214.53952419 -75.47416845 212.06501929 -75.8359375 208.9296875 C-76.41336397 201.12568126 -76.16774741 193.26626965 -76.09375 185.4453125 C-77.08375 185.1153125 -78.07375 184.7853125 -79.09375 184.4453125 Z " fill="#243A4B" transform="translate(257.09375,75.5546875)"/>
<path d="M0 0 C1.02988037 0.00314209 1.02988037 0.00314209 2.08056641 0.00634766 C13.06286075 0.07545088 22.80384231 1.04683853 32.9375 5.5 C33.90163818 5.91813965 33.90163818 5.91813965 34.88525391 6.34472656 C44.79620925 10.76318752 52.40018229 16.76853926 59.9375 24.5 C60.60265625 25.15613281 61.2678125 25.81226562 61.953125 26.48828125 C70.02175648 34.97488238 75.67111517 46.34254688 78.9375 57.5 C79.29457031 58.66402344 79.65164063 59.82804687 80.01953125 61.02734375 C83.22682052 74.1710619 82.60842894 91.76260867 77.9375 104.5 C77.70643555 105.1305127 77.47537109 105.76102539 77.23730469 106.41064453 C73.76501908 115.63294774 69.59678433 123.14366909 62.9375 130.5 C62.50550293 131.0355249 62.07350586 131.5710498 61.62841797 132.12280273 C57.93811004 136.65350851 53.94094303 140.06152818 49.1875 143.4375 C48.18009766 144.17709961 48.18009766 144.17709961 47.15234375 144.93164062 C42.21306129 148.5 42.21306129 148.5 39.9375 148.5 C39.94797363 147.70416504 39.95844727 146.90833008 39.96923828 146.08837891 C40.01116997 142.43395223 40.03694352 138.77957643 40.0625 135.125 C40.08763672 133.24748047 40.08763672 133.24748047 40.11328125 131.33203125 C40.19304038 116.09803687 37.14925914 104.49249678 28.23046875 92.04296875 C26.9375 89.5 26.9375 89.5 27.109375 86.90234375 C27.88112471 84.66354151 28.7649569 82.88471171 30 80.875 C32.58733502 75.91672525 32.64195037 70.97996856 31.9375 65.5 C31.29160327 63.82517475 30.62655713 62.15753507 29.9375 60.5 C29.69015872 57.03722209 29.52052874 54.43576108 30.9453125 51.23828125 C32.20264571 47.7682396 32.13128831 44.86767468 32.0625 41.1875 C32.04445313 39.93324219 32.02640625 38.67898437 32.0078125 37.38671875 C31.98460937 36.43410156 31.96140625 35.48148438 31.9375 34.5 C27.91004139 33.47448971 24.47884155 32.71079075 20.6640625 34.6640625 C18.07749361 36.61600854 15.70600977 38.59750662 13.6015625 41.06884766 C10.45423166 43.775663 6.29190397 43.11709794 2.3125 43.125 C0.95523804 43.12959229 0.95523804 43.12959229 -0.42944336 43.13427734 C-6.84759962 42.96362184 -10.85867857 41.92007737 -15.50390625 37.2265625 C-16.01824219 36.65679687 -16.53257812 36.08703125 -17.0625 35.5 C-20.51495824 33.19836118 -22.00988713 33.15509678 -26.0625 33.5 C-28.46164545 35.45853302 -28.46164545 35.45853302 -28.29296875 39.1328125 C-28.28897197 40.6302715 -28.27419057 42.12773107 -28.25 43.625 C-28.24935547 44.35976562 -28.24871094 45.09453125 -28.24804688 45.8515625 C-28.21850115 49.58088927 -28.012563 53.18835715 -27.4921875 56.8828125 C-27.0625 60.5 -27.0625 60.5 -28 63.25 C-29.98779244 69.3303063 -30.0673604 75.98784899 -27.6875 81.9375 C-27.15125 82.783125 -26.615 83.62875 -26.0625 84.5 C-24.734375 86.74609375 -24.734375 86.74609375 -24.0625 89.5 C-25.15758091 91.95031917 -26.23304621 93.90914195 -27.6875 96.125 C-31.33376447 102.04186077 -33.9776323 107.84491383 -36.0625 114.5 C-36.5575 115.985 -36.5575 115.985 -37.0625 117.5 C-37.15696954 119.44482486 -37.19321706 121.39272695 -37.1953125 123.33984375 C-37.19660156 124.48517578 -37.19789063 125.63050781 -37.19921875 126.81054688 C-37.19341797 128.60588867 -37.19341797 128.60588867 -37.1875 130.4375 C-37.19136719 131.63052734 -37.19523437 132.82355469 -37.19921875 134.05273438 C-37.19728516 135.77266602 -37.19728516 135.77266602 -37.1953125 137.52734375 C-37.19362061 139.10116821 -37.19362061 139.10116821 -37.19189453 140.70678711 C-37.07900015 143.14381462 -36.76517641 145.17530641 -36.0625 147.5 C-48.00431246 145.13847304 -57.55706773 132.9978095 -64.1484375 123.5703125 C-75.81494054 104.85628926 -80.88863327 82.72141056 -76.21484375 60.86328125 C-72.66517676 47.44579565 -65.30607542 34.7560563 -56.0625 24.5 C-55.49917969 23.86707031 -54.93585938 23.23414062 -54.35546875 22.58203125 C-39.92102124 7.26867124 -20.66095066 -0.14409994 0 0 Z " fill="#5EBED5" transform="translate(188.0625,78.5)"/>
<path d="M0 0 C1.65625 1.3203125 1.65625 1.3203125 3.90625 3.4453125 C3.90625 4.1053125 3.90625 4.7653125 3.90625 5.4453125 C4.89625 5.7753125 5.88625 6.1053125 6.90625 6.4453125 C6.90625 7.1053125 6.90625 7.7653125 6.90625 8.4453125 C7.56625 8.4453125 8.22625 8.4453125 8.90625 8.4453125 C8.90625 9.1053125 8.90625 9.7653125 8.90625 10.4453125 C9.89625 10.7753125 10.88625 11.1053125 11.90625 11.4453125 C13.75179486 13.59496976 15.43394816 15.72112044 17.09375 18.0078125 C17.5791626 18.67385498 18.0645752 19.33989746 18.56469727 20.02612305 C23.57254321 27.09121949 27.34543155 34.57269729 30.90625 42.4453125 C31.53660156 43.80076172 31.53660156 43.80076172 32.1796875 45.18359375 C37.31204875 56.97258896 38.39495488 69.22299933 38.28125 81.9453125 C38.29285156 83.24339844 38.30445313 84.54148437 38.31640625 85.87890625 C38.25865546 105.1484214 32.57645935 122.91956568 22.90625 139.4453125 C22.24625 139.4453125 21.58625 139.4453125 20.90625 139.4453125 C20.679375 140.1465625 20.4525 140.8478125 20.21875 141.5703125 C18.56783712 145.18659785 16.6153665 147.53301226 13.90625 150.4453125 C13.24625 150.4453125 12.58625 150.4453125 11.90625 150.4453125 C11.638125 151.0846875 11.37 151.7240625 11.09375 152.3828125 C9.90625 154.4453125 9.90625 154.4453125 6.90625 155.4453125 C6.90625 156.1053125 6.90625 156.7653125 6.90625 157.4453125 C6.24625 157.4453125 5.58625 157.4453125 4.90625 157.4453125 C4.57625 158.4353125 4.24625 159.4253125 3.90625 160.4453125 C3.24625 160.4453125 2.58625 160.4453125 1.90625 160.4453125 C1.90625 161.1053125 1.90625 161.7653125 1.90625 162.4453125 C-0.1484375 163.9609375 -0.1484375 163.9609375 -2.96875 165.6953125 C-3.97164062 166.3140625 -4.97453125 166.9328125 -6.0078125 167.5703125 C-7.02617187 168.1890625 -8.04453125 168.8078125 -9.09375 169.4453125 C-9.98835937 170.0021875 -10.88296875 170.5590625 -11.8046875 171.1328125 C-20.09490472 176.23448463 -26.26105704 178.97948294 -36.09375 178.4453125 C-35.49918223 175.09474822 -34.80830589 171.77217337 -34.09375 168.4453125 C-33.95710937 167.63449219 -33.82046875 166.82367188 -33.6796875 165.98828125 C-32.83826433 162.30234541 -32.06234215 160.12973808 -28.91015625 157.90234375 C-27.04368605 156.93524671 -25.16063427 155.999749 -23.265625 155.08984375 C-3.34974623 144.7640002 9.15468986 125.69999292 16.09375 104.8828125 C16.361875 103.7484375 16.63 102.6140625 16.90625 101.4453125 C17.09058594 100.67316406 17.27492188 99.90101563 17.46484375 99.10546875 C22.59336527 75.01910217 15.96744706 52.40210331 3.03125 32.1328125 C-9.50625146 14.01239293 -29.53370348 1.83306545 -51.08984375 -2.1015625 C-75.16879881 -5.37162423 -97.1196066 -1.6992673 -117.03125 12.5078125 C-118.72804396 13.80827502 -120.41664839 15.11955133 -122.09375 16.4453125 C-122.72667969 16.91324219 -123.35960937 17.38117188 -124.01171875 17.86328125 C-138.7582947 29.3703348 -148.93138196 50.31563856 -152.09375 68.4453125 C-153.92184751 94.89599227 -149.69780072 116.80881906 -132.7109375 137.44921875 C-124.39005093 146.97477099 -115.01783057 153.34198004 -104.09375 159.4453125 C-104.83568822 163.58196803 -106.04978832 166.7504587 -108.09375 170.4453125 C-108.526875 171.2290625 -108.96 172.0128125 -109.40625 172.8203125 C-111.09375 174.4453125 -111.09375 174.4453125 -113.87109375 174.73828125 C-117.57867084 174.40122879 -119.28723557 173.46471979 -122.34375 171.3828125 C-123.28734375 170.74730469 -124.2309375 170.11179688 -125.203125 169.45703125 C-126.15703125 168.79316406 -127.1109375 168.12929687 -128.09375 167.4453125 C-129.02703125 166.81238281 -129.9603125 166.17945313 -130.921875 165.52734375 C-138.79131839 160.13148271 -138.79131839 160.13148271 -141.09375 157.4453125 C-141.09375 156.7853125 -141.09375 156.1253125 -141.09375 155.4453125 C-141.95226562 155.105 -141.95226562 155.105 -142.828125 154.7578125 C-145.71504471 153.08539005 -147.28845494 151.06391065 -149.34375 148.4453125 C-150.40335938 147.115 -150.40335938 147.115 -151.484375 145.7578125 C-153.09375 143.4453125 -153.09375 143.4453125 -153.09375 141.4453125 C-153.75375 141.4453125 -154.41375 141.4453125 -155.09375 141.4453125 C-168.0604014 123.38095383 -172.30814721 103.68078526 -172.46875 81.8203125 C-172.48284912 80.522146 -172.49694824 79.22397949 -172.51147461 77.88647461 C-172.45224704 66.04770882 -170.62033821 54.78755946 -165.90625 43.8828125 C-165.45668945 42.82030273 -165.45668945 42.82030273 -164.99804688 41.73632812 C-160.78687735 32.08971093 -155.16803402 23.42059281 -148.5390625 15.25 C-146.93186152 13.29689805 -146.93186152 13.29689805 -145.09375 10.4453125 C-144.43375 10.4453125 -143.77375 10.4453125 -143.09375 10.4453125 C-143.09375 9.7853125 -143.09375 9.1253125 -143.09375 8.4453125 C-138.09045079 3.27841768 -132.02879287 -1.50358977 -126.09375 -5.5546875 C-125.43375 -5.5546875 -124.77375 -5.5546875 -124.09375 -5.5546875 C-124.09375 -6.2146875 -124.09375 -6.8746875 -124.09375 -7.5546875 C-121.59627977 -8.83070081 -119.09597064 -10.10054921 -116.59375 -11.3671875 C-115.89765625 -11.72361328 -115.2015625 -12.08003906 -114.484375 -12.44726562 C-107.34868327 -16.0481471 -100.19188461 -18.6489668 -92.46875 -20.6796875 C-91.21835938 -21.01226562 -89.96796875 -21.34484375 -88.6796875 -21.6875 C-57.25752395 -29.28632387 -25.26830943 -18.7626626 0 0 Z " fill="#F4F3EA" transform="translate(257.09375,75.5546875)"/>
<path d="M0 0 C10.02814869 8.01131432 12.12932168 17.94428302 13.5625 30.14648438 C15.39726076 48.92864059 11.36593809 68.43593414 3.22265625 85.42578125 C2.7745459 86.36200317 2.7745459 86.36200317 2.31738281 87.31713867 C1.08329832 89.85792093 -0.18299961 92.36823832 -1.55078125 94.83984375 C-4.51343733 100.78616765 -4.626249 106.64428677 -4.71484375 113.17578125 C-4.73345459 114.0879541 -4.75206543 115.00012695 -4.77124023 115.93994141 C-4.717011 121.6713926 -3.88308362 124.80493645 -0.21484375 129.42578125 C0.53515625 132.30078125 0.53515625 132.30078125 0.78515625 134.42578125 C-3.29662718 137.39435101 -6.19379661 138.1430737 -11.21484375 137.42578125 C-18.72643727 131.13197637 -19.93471312 122.24648282 -20.7890625 112.93359375 C-20.92245933 110.99429667 -21.04356977 109.05411512 -21.15234375 107.11328125 C-21.2100293 106.19490479 -21.26771484 105.27652832 -21.32714844 104.33032227 C-21.56395576 98.08255585 -20.53275208 93.20723952 -18.21484375 87.42578125 C-17.04903792 83.84509193 -16.99156742 82.93612714 -18.52734375 79.42578125 C-19.08421875 78.43578125 -19.64109375 77.44578125 -20.21484375 76.42578125 C-20.56546875 75.51828125 -20.91609375 74.61078125 -21.27734375 73.67578125 C-22.10889105 71.27790075 -22.10889105 71.27790075 -24.21484375 69.42578125 C-23.82627661 61.80910151 -20.61781353 54.18697107 -18.15234375 47.05078125 C-17.43104515 44.93922748 -16.7109421 42.82726483 -15.9921875 40.71484375 C-15.67499756 39.79396973 -15.35780762 38.8730957 -15.03100586 37.92431641 C-14.32701208 35.76916465 -13.72896579 33.63266542 -13.21484375 31.42578125 C-16.13001667 32.49979233 -17.99294551 33.20388301 -20.21484375 35.42578125 C-20.74084458 37.19218308 -21.18742899 38.98266315 -21.58984375 40.78125 C-23.1228128 47.2318528 -25.08930401 53.46154643 -27.21484375 59.73828125 C-27.55773437 60.77017578 -27.900625 61.80207031 -28.25390625 62.86523438 C-33.50474816 78.5075325 -41.04598172 95.11229656 -56.46484375 102.92578125 C-58.36715516 103.79138327 -60.28339559 104.62730547 -62.21484375 105.42578125 C-62.99472656 105.79960937 -63.77460938 106.1734375 -64.578125 106.55859375 C-68.10187785 107.71751691 -71.48229403 107.79396593 -75.15234375 107.80078125 C-75.84263672 107.82527344 -76.53292969 107.84976563 -77.24414062 107.875 C-82.41265724 107.90439441 -85.20635415 106.5934946 -89.21484375 103.42578125 C-89.99859375 102.82765625 -90.78234375 102.22953125 -91.58984375 101.61328125 C-93.91032918 98.48955087 -93.6355787 96.21239576 -93.21484375 92.42578125 C-91.21484375 90.42578125 -91.21484375 90.42578125 -89.20288086 90.29394531 C-88.39085205 90.34260742 -87.57882324 90.39126953 -86.7421875 90.44140625 C-74.11491037 91.54339446 -74.11491037 91.54339446 -63.06640625 86.58984375 C-57.29863905 79.84861374 -52.11077306 73.02526863 -49.7578125 64.33984375 C-49.21484375 62.42578125 -49.21484375 62.42578125 -47.65234375 59.36328125 C-46.26263523 56.52344211 -45.44902591 53.82532818 -44.74609375 50.75 C-44.12275597 48.02289721 -43.41554937 45.32150849 -42.71484375 42.61328125 C-41.49751173 37.7623049 -40.53841516 32.91110229 -39.6875 27.984375 C-39.02817621 24.41530822 -38.14156411 20.93407976 -37.21484375 17.42578125 C-39.67115376 17.92125668 -39.67115376 17.92125668 -42.21484375 19.42578125 C-44.92391787 24.64849877 -45.9568213 29.63842765 -46.77734375 35.42578125 C-47.58292839 40.91296348 -48.57171056 46.12262178 -50.21484375 51.42578125 C-50.87484375 51.42578125 -51.53484375 51.42578125 -52.21484375 51.42578125 C-53.75292801 46.16904737 -53.47997771 40.79774503 -53.52734375 35.36328125 C-53.55634766 34.28111328 -53.58535156 33.19894531 -53.61523438 32.08398438 C-53.69750425 21.53445453 -50.87786489 11.76824882 -44.21484375 3.42578125 C-31.5407893 -9.13636102 -14.51235192 -10.31477571 0 0 Z " fill="#F4F4ED" transform="translate(209.21484375,172.57421875)"/>
<path d="M0 0 C0.804375 0.474375 1.60875 0.94875 2.4375 1.4375 C2.4375 2.0975 2.4375 2.7575 2.4375 3.4375 C3.489375 2.81875 4.54125 2.2 5.625 1.5625 C12.03833966 -2.05462357 17.47143873 -3.92653328 24.8125 -1.91015625 C29.71312957 -0.03211893 31.96708818 1.64114731 34.58001709 6.37709045 C36.08688551 9.99788108 36.04088425 13.55686904 36.046875 17.43359375 C36.06341125 18.26713882 36.07994751 19.1006839 36.09698486 19.95948792 C36.14521714 22.59806873 36.16677987 25.23607432 36.1875 27.875 C36.21568052 29.67385668 36.24561085 31.47268685 36.27734375 33.27148438 C36.35423602 37.66041449 36.39498249 42.04756676 36.4375 46.4375 C30.8275 46.4375 25.2175 46.4375 19.4375 46.4375 C19.37691406 44.13910156 19.31632813 41.84070313 19.25390625 39.47265625 C19.19215995 37.25525476 19.12875446 35.03790654 19.06518555 32.82055664 C19.02178015 31.27535711 18.98010929 29.73010786 18.94018555 28.18481445 C18.88261801 25.96810904 18.81888576 23.7516552 18.75390625 21.53515625 C18.73719376 20.8403566 18.72048126 20.14555695 18.70326233 19.42970276 C18.87247144 16.14987971 18.87247144 16.14987971 17.4375 13.4375 C13.98857891 13.45342762 13.98857891 13.45342762 10.4375 14.4375 C7.51677887 18.14447292 7.08263341 20.93228053 7.1796875 25.578125 C7.19386719 26.73054688 7.20804688 27.88296875 7.22265625 29.0703125 C7.25230469 30.26398438 7.28195312 31.45765625 7.3125 32.6875 C7.35563683 35.06763798 7.39491944 37.44785006 7.4296875 39.828125 C7.45401855 40.88032227 7.47834961 41.93251953 7.50341797 43.01660156 C7.4375 45.4375 7.4375 45.4375 6.4375 46.4375 C3.74095146 46.51069621 1.07058542 46.52992537 -1.625 46.5 C-2.76291992 46.49323242 -2.76291992 46.49323242 -3.92382812 46.48632812 C-5.80341871 46.4745068 -7.68296899 46.45657078 -9.5625 46.4375 C-9.58755615 45.5088916 -9.6126123 44.5802832 -9.63842773 43.62353516 C-9.73347932 40.18314196 -9.83271707 36.74292287 -9.93481445 33.30273438 C-9.97816589 31.81287359 -10.01984084 30.32296305 -10.05981445 28.83300781 C-10.11751215 26.69320673 -10.18120755 24.55365615 -10.24609375 22.4140625 C-10.28275146 21.12580566 -10.31940918 19.83754883 -10.35717773 18.51025391 C-10.35780675 15.5247318 -10.35780675 15.5247318 -11.5625 13.4375 C-16.3566915 13.64401827 -16.3566915 13.64401827 -20.26098633 16.07714844 C-21.95690248 19.15276602 -21.99457086 21.44861796 -22.07421875 24.953125 C-22.10966797 26.20351562 -22.14511719 27.45390625 -22.18164062 28.7421875 C-22.20419922 30.04414063 -22.22675781 31.34609375 -22.25 32.6875 C-22.28416016 34.00492188 -22.31832031 35.32234375 -22.35351562 36.6796875 C-22.4360016 39.93199171 -22.50092673 43.18473267 -22.5625 46.4375 C-28.1725 46.4375 -33.7825 46.4375 -39.5625 46.4375 C-39.5625 30.9275 -39.5625 15.4175 -39.5625 -0.5625 C-32.5625 -0.5625 -25.5625 -0.5625 -18.5625 -0.5625 C-17.675625 -0.913125 -16.78875 -1.26375 -15.875 -1.625 C-10.18818819 -3.23447504 -5.36056598 -2.35112543 0 0 Z " fill="#036FBF" transform="translate(664.5625,167.5625)"/>
<path d="M0 0 C0.87454834 0.00523682 1.74909668 0.01047363 2.65014648 0.01586914 C3.59438477 0.0190918 4.53862305 0.02231445 5.51147461 0.02563477 C6.50469727 0.03401367 7.49791992 0.04239258 8.52124023 0.05102539 C9.51833008 0.05553711 10.51541992 0.06004883 11.54272461 0.06469727 C14.01478872 0.07652532 16.48673541 0.0930069 18.95874023 0.11352539 C23.91036523 12.16530582 28.72248771 24.38940829 32.28686523 36.92993164 C33.8547364 42.02551292 36.03160055 46.9175017 38.10327148 51.82446289 C38.46807617 52.70360352 38.83288086 53.58274414 39.20874023 54.48852539 C39.54389648 55.28000977 39.87905273 56.07149414 40.22436523 56.88696289 C40.95874023 59.11352539 40.95874023 59.11352539 40.95874023 63.11352539 C34.68874023 63.11352539 28.41874023 63.11352539 21.95874023 63.11352539 C20.63874023 58.82352539 19.31874023 54.53352539 17.95874023 50.11352539 C11.35874023 49.78352539 4.75874023 49.45352539 -2.04125977 49.11352539 C-2.37125977 51.09352539 -2.70125977 53.07352539 -3.04125977 55.11352539 C-4.81903754 61.89130317 -4.81903754 61.89130317 -6.04125977 63.11352539 C-7.3839339 63.19984413 -8.73100298 63.22059012 -10.07641602 63.21118164 C-10.88530273 63.20795898 -11.69418945 63.20473633 -12.52758789 63.20141602 C-13.37772461 63.19303711 -14.22786133 63.1846582 -15.10375977 63.17602539 C-15.95776367 63.17151367 -16.81176758 63.16700195 -17.69165039 63.16235352 C-19.8082164 63.15052912 -21.92474662 63.13259308 -24.04125977 63.11352539 C-23.54959936 59.12239978 -23.03486161 55.55112263 -21.41625977 51.86352539 C-19.44816729 47.15139 -17.62067013 42.40383799 -15.85375977 37.61352539 C-15.56339844 36.82703613 -15.27303711 36.04054687 -14.97387695 35.23022461 C-11.84762969 26.69188968 -8.90130665 18.09097743 -5.97412109 9.48266602 C-5.60697998 8.40952148 -5.23983887 7.33637695 -4.86157227 6.23071289 C-4.53431152 5.26762207 -4.20705078 4.30453125 -3.86987305 3.31225586 C-2.67774001 0.14892347 -2.67774001 0.14892347 0 0 Z M7.95874023 17.11352539 C6.007858 22.73206621 4.32701676 28.32466315 2.95874023 34.11352539 C6.58874023 34.11352539 10.21874023 34.11352539 13.95874023 34.11352539 C12.30874023 28.50352539 10.65874023 22.89352539 8.95874023 17.11352539 C8.62874023 17.11352539 8.29874023 17.11352539 7.95874023 17.11352539 Z " fill="#727272" transform="translate(410.041259765625,150.886474609375)"/>
<path d="M0 0 C0.33 -0.33 0.66 -0.66 1 -1 C6.28 -1 11.56 -1 17 -1 C17 19.13 17 39.26 17 60 C11.72 60 6.44 60 1 60 C0.04108043 56.16432171 -0.10177189 53.17718859 -0.0625 49.25 C-0.05347656 48.07953125 -0.04445313 46.9090625 -0.03515625 45.703125 C-0.02355469 44.81109375 -0.01195312 43.9190625 0 43 C-0.845625 43.48726562 -1.69125 43.97453125 -2.5625 44.4765625 C-6.34243401 46.15176053 -8.88898606 46.40204614 -13 46.375 C-14.175625 46.38273437 -15.35125 46.39046875 -16.5625 46.3984375 C-22.39282578 45.72264974 -26.7307265 42.92311619 -31 39 C-35.581663 32.72142478 -36.78012463 25.5907365 -36 18 C-34.74571198 11.11722626 -32.46280707 5.55022677 -27 1 C-17.82418152 -4.2795049 -9.45615779 -4.1263234 0 0 Z M-17 13 C-19.35119399 16.52679099 -19.21443452 18.02879485 -19.125 22.1875 C-19.10695313 23.27417969 -19.08890625 24.36085937 -19.0703125 25.48046875 C-19.04710937 26.31191406 -19.02390625 27.14335937 -19 28 C-18.34 28 -17.68 28 -17 28 C-16.690625 28.639375 -16.38125 29.27875 -16.0625 29.9375 C-15.1654837 31.93610821 -15.1654837 31.93610821 -14 33 C-10.9249643 33.50191698 -8.06674891 33.56849597 -5 33 C-2.19543477 30.87036519 -0.57050165 28.14100331 1 25 C1.13160217 20.21532125 0.65278564 16.87038085 -2.25 13 C-7.83281914 8.9397679 -10.9820117 9.82068543 -17 13 Z " fill="#026FBF" transform="translate(366,168)"/>
<path d="M0 0 C0 0.66 0 1.32 0 2 C0.66 2 1.32 2 2 2 C2 2.66 2 3.32 2 4 C2.66 4 3.32 4 4 4 C5.94924707 8.87649008 6.26603667 13.27792544 6.1953125 18.4609375 C6.1924826 19.25150543 6.18965271 20.04207336 6.18673706 20.8565979 C6.17560955 23.36289084 6.15051926 25.86881645 6.125 28.375 C6.11496058 30.08202606 6.10583641 31.78905777 6.09765625 33.49609375 C6.07569463 37.6642024 6.04121671 41.83203908 6 46 C-0.33333333 46 -6.66666667 46 -13 46 C-13.61101563 46.15984375 -14.22203125 46.3196875 -14.8515625 46.484375 C-20.85966625 47.9263199 -27.7361445 47.7546185 -33.5625 45.8125 C-36.86430503 43.35731164 -39.15994189 40.68011621 -41 37 C-41.61624614 31.61224803 -41.76161732 27.35125654 -39.0625 22.5625 C-32.11587235 16.75001564 -24.62886507 14.83924324 -15.6875 14.9375 C-14.08455078 14.95103516 -14.08455078 14.95103516 -12.44921875 14.96484375 C-11.64097656 14.97644531 -10.83273437 14.98804688 -10 15 C-10.66 13.68 -11.32 12.36 -12 11 C-15.03336186 10.77106703 -17.97465051 10.63524155 -21 11 C-23.12355567 12.82271927 -23.12355567 12.82271927 -24 15 C-29.00890086 14.38487182 -34.00632136 13.7282448 -39 13 C-38.93365704 9.6828522 -38.7687048 7.02336773 -36.7265625 4.3046875 C-26.4724297 -5.27546474 -12.37592108 -4.51009705 0 0 Z M-24 29 C-24.66 29.99 -25.32 30.98 -26 32 C-24.16675303 33.90963226 -22.78031196 34.95203 -20.09375 35.1171875 C-16.52568353 34.81097284 -14.43931056 34.31850016 -11.5 32.1875 C-9.6229811 29.89224525 -9.6229811 29.89224525 -10 26 C-15.60726423 25.70996909 -19.1241995 25.86555682 -24 29 Z " fill="#0470C0" transform="translate(770,168)"/>
<path d="M0 0 C4.60100181 3.56812385 5.6732894 6.61969724 6.45703125 12.16796875 C7.14312199 19.82474139 7.1558639 27.5048898 7.1875 35.1875 C7.19225342 36.17306885 7.19700684 37.1586377 7.2019043 38.17407227 C7.19864136 39.55163696 7.19864136 39.55163696 7.1953125 40.95703125 C7.19418457 41.78436768 7.19305664 42.6117041 7.19189453 43.46411133 C7.0625 45.375 7.0625 45.375 6.0625 46.375 C3.36595146 46.44819621 0.69558542 46.46742537 -2 46.4375 C-3.13791992 46.43073242 -3.13791992 46.43073242 -4.29882812 46.42382812 C-6.17841871 46.4120068 -8.05796899 46.39407078 -9.9375 46.375 C-11.00339872 42.91397651 -11.0381553 39.75782257 -11 36.1484375 C-10.99226563 34.9521875 -10.98453125 33.7559375 -10.9765625 32.5234375 C-10.95722656 30.65558594 -10.95722656 30.65558594 -10.9375 28.75 C-10.91207499 26.27868881 -10.89101333 23.8073276 -10.875 21.3359375 C-10.86339844 20.24071777 -10.85179687 19.14549805 -10.83984375 18.01708984 C-10.75420121 15.39670476 -10.75420121 15.39670476 -11.9375 13.375 C-16.10898265 13.18097755 -19.22694583 13.36069917 -22.9375 15.375 C-24.0382076 18.6771228 -24.14377072 21.31583279 -24.25390625 24.79296875 C-24.29580078 26.04658203 -24.33769531 27.30019531 -24.38085938 28.59179688 C-24.42017578 29.90212891 -24.45949219 31.21246094 -24.5 32.5625 C-24.54320992 33.89779978 -24.586825 35.23308652 -24.63085938 36.56835938 C-24.73706434 39.83711234 -24.83779785 43.10604223 -24.9375 46.375 C-30.5475 46.375 -36.1575 46.375 -41.9375 46.375 C-41.9375 30.865 -41.9375 15.355 -41.9375 -0.625 C-36.3275 -0.625 -30.7175 -0.625 -24.9375 -0.625 C-24.6075 0.035 -24.2775 0.695 -23.9375 1.375 C-22.9475 0.715 -21.9575 0.055 -20.9375 -0.625 C-13.98058974 -3.32257745 -6.80395393 -3.3372459 0 0 Z " fill="#026EC0" transform="translate(521.9375,167.625)"/>
<path d="M0 0 C3.53819573 0.57926213 5.25028243 1.84323477 7.75 4.375 C8.36359375 4.98085937 8.9771875 5.58671875 9.609375 6.2109375 C11 8 11 8 11 11 C11.845625 10.505 12.69125 10.01 13.5625 9.5 C19.5397059 6.85862063 26.59727001 7.77751131 33 8 C33 8.66 33 9.32 33 10 C34.65 10 36.3 10 38 10 C38.20625 9.278125 38.4125 8.55625 38.625 7.8125 C40.48821128 4.00138601 42.54872241 2.46519828 46 0 C46.99 0 47.98 0 49 0 C49.22184605 6.12541599 48.85139262 11.09868602 47 17 C46.66407492 19.7104607 46.66407492 19.7104607 47 22 C47.66 22.66 48.32 23.32 49 24 C49.968748 31.77037867 49.89795892 38.36326566 45.09375 44.7421875 C44.7328125 45.15726563 44.371875 45.57234375 44 46 C41.6962931 45.46837533 39.60675242 44.84187183 37.40625 43.95703125 C32.73625514 42.64493407 28.32713916 42.67066897 23.5 42.6875 C22.57574219 42.67138672 21.65148437 42.65527344 20.69921875 42.63867188 C15.27698339 42.63479331 11.78115037 43.2036173 7 46 C4 46 4 46 2.61328125 44.70703125 C-1.65590579 38.48914622 -1.96095872 32.39432446 -1 25 C-0.01 23.515 -0.01 23.515 1 22 C1.66 22 2.32 22 3 22 C3 20.02 3 18.04 3 16 C2.34 16 1.68 16 1 16 C-0.12862175 10.63904667 -0.09688221 5.44693314 0 0 Z " fill="#F2F2EC" transform="translate(165,118)"/>
<path d="M0 0 C5.61 0 11.22 0 17 0 C17 10.56 17 21.12 17 32 C17.66 32 18.32 32 19 32 C19 32.66 19 33.32 19 34 C20.42261484 33.62610764 21.83801142 33.22470957 23.25 32.8125 C24.03890625 32.59207031 24.8278125 32.37164062 25.640625 32.14453125 C28.88960981 30.56845087 30.16855262 29.12716525 32 26 C32.49274308 23.02187844 32.42369306 20.13462552 32.3125 17.125 C32.30283203 16.34769531 32.29316406 15.57039062 32.28320312 14.76953125 C32.21277542 11.12566308 31.98689853 7.59326486 31.41796875 3.9921875 C31.28003906 3.00476563 31.14210938 2.01734375 31 1 C32 0 32 0 35.59765625 -0.09765625 C37.08596867 -0.0909822 38.57426432 -0.07902183 40.0625 -0.0625 C40.82111328 -0.05798828 41.57972656 -0.05347656 42.36132812 -0.04882812 C44.24091871 -0.0370068 46.12046899 -0.01907078 48 0 C48.83712183 2.89579242 49.10137258 5.39259154 49.02172852 8.40136719 C49.00163223 9.2619574 48.98153595 10.12254761 48.96083069 11.00921631 C48.92027809 12.38910736 48.92027809 12.38910736 48.87890625 13.796875 C48.84348976 15.22003021 48.84348976 15.22003021 48.80735779 16.67193604 C48.73087006 19.69811521 48.64678153 22.72402884 48.5625 25.75 C48.50926442 27.80337248 48.45652412 29.85675787 48.40429688 31.91015625 C48.27527502 36.94027188 48.13943665 41.97016273 48 47 C45.54137599 47.05383848 43.0839245 47.09359038 40.625 47.125 C39.92632813 47.14175781 39.22765625 47.15851563 38.5078125 47.17578125 C36.67102514 47.19344267 34.83398037 47.10303261 33 47 C32.34 46.34 31.68 45.68 31 45 C30.0925 45.495 29.185 45.99 28.25 46.5 C21.99894142 49.17356884 14.85820612 48.9697485 8.5 46.8125 C2.97492117 42.80681785 1.20632324 38.57812418 0 32 C-0.15291727 29.40994326 -0.21623575 26.81323258 -0.1953125 24.21875 C-0.1924826 23.51979614 -0.18965271 22.82084229 -0.18673706 22.10070801 C-0.1756727 19.90028684 -0.15059606 17.70029507 -0.125 15.5 C-0.11495235 13.99479761 -0.10582965 12.48958874 -0.09765625 10.984375 C-0.07749242 7.32262405 -0.038321 3.66178427 0 0 Z " fill="#0570C0" transform="translate(570,167)"/>
<path d="M0 0 C5.28 0 10.56 0 16 0 C17.42166892 4.26500676 16.57997373 7.55353474 16 12 C19.3 12 22.6 12 26 12 C26 16.29 26 20.58 26 25 C22 26 22 26 16 25 C16.33 31.93 16.66 38.86 17 46 C19.64 46 22.28 46 25 46 C27.61838609 49.92757913 27.36792655 53.43771074 27 58 C23.29789441 60.4680704 20.40887746 60.33179675 16.125 60.3125 C15.06345703 60.33666992 15.06345703 60.33666992 13.98046875 60.36132812 C9.45635018 60.36554053 6.51842918 59.89419175 3 57 C0.14958249 53.10223578 -0.36107659 50.39571997 -0.29296875 45.60546875 C-0.28330078 44.40341797 -0.27363281 43.20136719 -0.26367188 41.96289062 C-0.23853516 40.71701172 -0.21339844 39.47113281 -0.1875 38.1875 C-0.16719727 36.28967773 -0.16719727 36.28967773 -0.14648438 34.35351562 C-0.11118318 31.23524357 -0.06186819 28.11783958 0 25 C-1.299375 25.185625 -2.59875 25.37125 -3.9375 25.5625 C-6.15234375 25.87890625 -6.15234375 25.87890625 -8 26 C-9 25 -9 25 -9.09765625 22.05859375 C-9.08605469 20.86363281 -9.07445312 19.66867188 -9.0625 18.4375 C-9.05347656 17.23996094 -9.04445313 16.04242188 -9.03515625 14.80859375 C-9.02355469 13.88175781 -9.01195312 12.95492187 -9 12 C-6.03 12 -3.06 12 0 12 C0 8.04 0 4.08 0 0 Z " fill="#026FBF" transform="translate(541,155)"/>
<path d="M0 0 C5.94 0 11.88 0 18 0 C18.02255449 8.0665259 18.04091709 16.13302746 18.05181217 24.19957638 C18.05704014 27.94483037 18.06413622 31.69006176 18.07543945 35.43530273 C18.08627141 39.04681687 18.09227749 42.65830921 18.09487724 46.26983833 C18.09673094 47.65060329 18.10035049 49.031367 18.10573006 50.41212273 C18.11294447 52.33975952 18.11340809 54.26741807 18.11352539 56.19506836 C18.115746 57.29427109 18.11796661 58.39347382 18.12025452 59.52598572 C18 62 18 62 17 63 C11.39 63 5.78 63 0 63 C0 42.21 0 21.42 0 0 Z " fill="#727273" transform="translate(455,151)"/>
<path d="M0 0 C1.58206057 0.00667536 3.16410534 0.0186375 4.74609375 0.03515625 C5.55240234 0.03966797 6.35871094 0.04417969 7.18945312 0.04882812 C9.18753131 0.06065107 11.18557158 0.07858711 13.18359375 0.09765625 C13.20886377 6.63044411 13.22642667 13.16321946 13.23852539 19.69604492 C13.24356692 21.92033357 13.25039998 24.14461888 13.2590332 26.36889648 C13.27110673 29.55843934 13.27682371 32.74793854 13.28125 35.9375 C13.28641129 36.93853256 13.29157257 37.93956512 13.29689026 38.97093201 C13.29700356 40.3522506 13.29700356 40.3522506 13.29711914 41.76147461 C13.29933975 42.57643906 13.30156036 43.3914035 13.30384827 44.23106384 C13.18359375 46.09765625 13.18359375 46.09765625 12.18359375 47.09765625 C9.50627995 47.19746839 6.860552 47.236455 4.18359375 47.22265625 C3.05824219 47.22845703 3.05824219 47.22845703 1.91015625 47.234375 C-3.68979572 47.22426678 -3.68979572 47.22426678 -4.81640625 46.09765625 C-4.91445476 44.69090405 -4.94438811 43.27930489 -4.94580078 41.86914062 C-4.94895294 40.97151001 -4.9521051 40.07387939 -4.95535278 39.14904785 C-4.95332855 38.17302612 -4.95130432 37.19700439 -4.94921875 36.19140625 C-4.95017548 35.19637085 -4.9511322 34.20133545 -4.95211792 33.17614746 C-4.95279985 31.06778907 -4.95094469 28.9594286 -4.94677734 26.85107422 C-4.94142928 23.61160598 -4.94672192 20.3722764 -4.953125 17.1328125 C-4.95246422 15.08984344 -4.95118306 13.04687447 -4.94921875 11.00390625 C-4.95124298 10.02788452 -4.95326721 9.05186279 -4.95535278 8.04626465 C-4.95220062 7.14863403 -4.94904846 6.25100342 -4.94580078 5.32617188 C-4.94500519 4.53198853 -4.94420959 3.73780518 -4.94338989 2.91955566 C-4.69939753 -0.5811279 -3.65168654 0.09344131 0 0 Z " fill="#0470C0" transform="translate(786.81640625,166.90234375)"/>
<path d="M0 0 C0.33 1.32 0.66 2.64 1 4 C1.99 4 2.98 4 4 4 C3.34 5.65 2.68 7.3 2 9 C1.28972656 9.06058594 0.57945313 9.12117188 -0.15234375 9.18359375 C-1.07144531 9.26738281 -1.99054688 9.35117187 -2.9375 9.4375 C-3.85402344 9.51871094 -4.77054688 9.59992188 -5.71484375 9.68359375 C-7.96159732 9.76044976 -7.96159732 9.76044976 -9 11 C-9.66923762 14.28743547 -9.66923762 14.28743547 -9 18 C-5.67762536 21.92248943 -1.9612112 24.81105404 3.203125 25.30859375 C13.66460008 25.76133551 20.67725144 23.70402738 30 19 C31.65915156 18.3148443 33.3232341 17.64084189 35 17 C33.35 18.98 31.7 20.96 30 23 C30.99 23 31.98 23 33 23 C33 23.99 33 24.98 33 26 C30.81477184 26.96380382 28.62704614 27.92109439 26.4375 28.875 C25.82841797 29.14441406 25.21933594 29.41382813 24.59179688 29.69140625 C15.00991796 33.84862356 5.77709251 36.06570685 -4.3125 32.3125 C-9.7053388 29.87288245 -13.4879553 27.21766556 -16.875 22.25 C-18.68855399 17.01084402 -19.01641007 12.22642207 -16.6875 7.125 C-11.62467015 0.74958463 -8.02538456 -0.26751282 0 0 Z " fill="#1F3344" transform="translate(126,254)"/>
<path d="M0 0 C1.65625 1.3203125 1.65625 1.3203125 3.90625 3.4453125 C3.90625 4.1053125 3.90625 4.7653125 3.90625 5.4453125 C4.89625 5.7753125 5.88625 6.1053125 6.90625 6.4453125 C6.90625 7.1053125 6.90625 7.7653125 6.90625 8.4453125 C7.56625 8.4453125 8.22625 8.4453125 8.90625 8.4453125 C8.90625 9.1053125 8.90625 9.7653125 8.90625 10.4453125 C9.89625 10.7753125 10.88625 11.1053125 11.90625 11.4453125 C12.56625 12.4353125 13.22625 13.4253125 13.90625 14.4453125 C13.57625 15.4353125 13.24625 16.4253125 12.90625 17.4453125 C11.19740995 15.82191445 9.53178283 14.15212197 7.90625 12.4453125 C7.90625 11.7853125 7.90625 11.1253125 7.90625 10.4453125 C7.33519531 10.19910156 6.76414062 9.95289063 6.17578125 9.69921875 C3.53632863 8.24093254 1.74801687 6.49243135 -0.40625 4.3828125 C-22.28116921 -15.59692282 -49.90304482 -20.68607494 -78.61132812 -19.78564453 C-86.45236789 -19.26562044 -93.73426593 -17.21274464 -101.09375 -14.5546875 C-102.77791016 -13.96107422 -102.77791016 -13.96107422 -104.49609375 -13.35546875 C-130.69742597 -3.20540312 -147.5846591 16.57723261 -161.09375 40.4453125 C-161.42375 40.4453125 -161.75375 40.4453125 -162.09375 40.4453125 C-162.59537645 35.69306191 -161.05501296 33.16054159 -158.53125 29.1953125 C-158.17208496 28.62828613 -157.81291992 28.06125977 -157.44287109 27.47705078 C-154.70160187 23.21513023 -151.72996491 19.18297274 -148.5390625 15.25 C-146.93186152 13.29689805 -146.93186152 13.29689805 -145.09375 10.4453125 C-144.43375 10.4453125 -143.77375 10.4453125 -143.09375 10.4453125 C-143.09375 9.7853125 -143.09375 9.1253125 -143.09375 8.4453125 C-138.09045079 3.27841768 -132.02879287 -1.50358977 -126.09375 -5.5546875 C-125.43375 -5.5546875 -124.77375 -5.5546875 -124.09375 -5.5546875 C-124.09375 -6.2146875 -124.09375 -6.8746875 -124.09375 -7.5546875 C-121.59627977 -8.83070081 -119.09597064 -10.10054921 -116.59375 -11.3671875 C-115.89765625 -11.72361328 -115.2015625 -12.08003906 -114.484375 -12.44726562 C-107.34868327 -16.0481471 -100.19188461 -18.6489668 -92.46875 -20.6796875 C-91.21835938 -21.01226562 -89.96796875 -21.34484375 -88.6796875 -21.6875 C-57.25752395 -29.28632387 -25.26830943 -18.7626626 0 0 Z " fill="#E9E7E0" transform="translate(257.09375,75.5546875)"/>
<path d="M0 0 C0.70253906 0.00386719 1.40507813 0.00773438 2.12890625 0.01171875 C2.83144531 0.00785156 3.53398438 0.00398437 4.2578125 0 C9.50229247 0.01010497 9.50229247 0.01010497 10.62890625 1.13671875 C10.70210246 3.83326729 10.72133162 6.50363333 10.69140625 9.19921875 C10.68689453 9.95783203 10.68238281 10.71644531 10.67773438 11.49804688 C10.66591305 13.37763746 10.64797703 15.25718774 10.62890625 17.13671875 C7.98300611 17.16356554 5.33737529 17.18348232 2.69140625 17.19921875 C1.93666016 17.20759766 1.18191406 17.21597656 0.40429688 17.22460938 C-1.52103688 17.23324316 -3.44644956 17.18896208 -5.37109375 17.13671875 C-7.12669317 15.38111933 -6.50331294 13.10089433 -6.5078125 10.765625 C-6.50394531 10.06308594 -6.50007812 9.36054688 -6.49609375 8.63671875 C-6.49996094 7.93417969 -6.50382813 7.23164063 -6.5078125 6.5078125 C-6.49578187 0.26391348 -6.24389902 0.01203063 0 0 Z " fill="#0871C0" transform="translate(713.37109375,196.86328125)"/>
<path d="M0 0 C0.02687279 1.81242052 0.04633715 3.62495233 0.0625 5.4375 C0.07410156 6.44683594 0.08570313 7.45617187 0.09765625 8.49609375 C0 11 0 11 -1 12 C-3.6773138 12.09981214 -6.32304175 12.13879875 -9 12.125 C-10.12535156 12.13080078 -10.12535156 12.13080078 -11.2734375 12.13671875 C-16.87338947 12.12661053 -16.87338947 12.12661053 -18 11 C-18.07226502 9.14712498 -18.0838122 7.29166122 -18.0625 5.4375 C-18.05347656 4.42558594 -18.04445313 3.41367188 -18.03515625 2.37109375 C-18.02355469 1.58863281 -18.01195312 0.80617187 -18 0 C-12.65450281 -1.12536783 -5.06932075 -2.53466037 0 0 Z " fill="#0971C4" transform="translate(800,151)"/>
<path d="M0 0 C-0.70258962 4.94935356 -1.94738275 9.59928038 -3.375 14.375 C-3.58382812 15.09171875 -3.79265625 15.8084375 -4.0078125 16.546875 C-5.87340011 22.84892095 -7.85923785 29.20166987 -11 35 C-11 34.01 -11 33.02 -11 32 C-12.32 31.67 -13.64 31.34 -15 31 C-8.14890282 0 -8.14890282 0 0 0 Z " fill="#2C465C" transform="translate(196,204)"/>
<path d="M0 0 C1.32 0 2.64 0 4 0 C5.625 2.25 5.625 2.25 7 5 C7.391875 5.763125 7.78375 6.52625 8.1875 7.3125 C8.455625 7.869375 8.72375 8.42625 9 9 C7.02 10.98 5.04 12.96 3 15 C2.01 14.67 1.02 14.34 0 14 C0 13.34 0 12.68 0 12 C-2.475 11.01 -2.475 11.01 -5 10 C-4.6875 7.625 -4.6875 7.625 -4 5 C-3.01 4.34 -2.02 3.68 -1 3 C-0.67 2.01 -0.34 1.02 0 0 Z " fill="#EAF4F2" transform="translate(241,171)"/>
<path d="M0 0 C0.99 0.495 0.99 0.495 2 1 C2 1.66 2 2.32 2 3 C2.8353125 3.4021875 2.8353125 3.4021875 3.6875 3.8125 C6 5 6 5 8.0625 6.53515625 C12.16607134 8.58148504 15.77798401 8.61466688 20.3125 8.625 C21.62589355 8.63176758 21.62589355 8.63176758 22.96582031 8.63867188 C32.01632477 8.4090469 39.16347217 5.29038954 47 1 C47 1.99 47 2.98 47 4 C44.81477184 4.96380382 42.62704614 5.92109439 40.4375 6.875 C39.82841797 7.14441406 39.21933594 7.41382813 38.59179688 7.69140625 C28.92749545 11.88438359 19.69663786 14.08869466 9.5625 10.1875 C6.36770916 8.81379257 3.63279475 7.28837149 1 5 C0.25 2.3125 0.25 2.3125 0 0 Z " fill="#111F30" transform="translate(112,276)"/>
<path d="M0 0 C1.21198584 3.63595752 0.63169446 4.84265131 -0.375 8.5 C-3.06163633 20.10528751 -2.76775465 32.14137296 -3 44 C-3.99 44.495 -3.99 44.495 -5 45 C-5.04998439 40.76824446 -5.08599164 36.53665204 -5.10986328 32.3046875 C-5.11983031 30.86943564 -5.13340887 29.43420358 -5.15087891 27.99902344 C-5.37898076 8.75796151 -5.37898076 8.75796151 -2 2 C-1.34 2 -0.68 2 0 2 C0 1.34 0 0.68 0 0 Z " fill="#E2E0D9" transform="translate(90,128)"/>
<path d="M0 0 C0.66 0.33 1.32 0.66 2 1 C1.47731534 3.76276177 0.89130413 6.3260876 0 9 C-0.66 9 -1.32 9 -2 9 C-2 9.66 -2 10.32 -2 11 C-7.00099024 14.89923952 -12.29109502 14.70668551 -18.375 14.48828125 C-22.73310468 13.90125206 -24.86078166 12.78751401 -27.8984375 9.703125 C-29.11757064 7.81822412 -29.58952353 6.19557183 -30 4 C-29.34 3.67 -28.68 3.34 -28 3 C-28 3.99 -28 4.98 -28 6 C-27.34 6 -26.68 6 -26 6 C-26 6.66 -26 7.32 -26 8 C-25.01 8.33 -24.02 8.66 -23 9 C-23 9.66 -23 10.32 -23 11 C-12.66705686 11.71320263 -12.66705686 11.71320263 -3 9 C-1.52761121 6.0924308 -0.6865454 3.17772442 0 0 Z " fill="#040F1E" transform="translate(216,303)"/>
<path d="M0 0 C2.33829125 1.02300242 3.55893291 1.75132219 5 3.875 C4.84946418 6.88571639 4.41319987 8.39568815 2.4375 10.6875 C1.963125 11.079375 1.48875 11.47125 1 11.875 C-1.91517292 10.80098892 -3.77810176 10.09689824 -6 7.875 C-5.78343634 5.05967241 -5.31127943 3.31968489 -3.6875 1 C-2 -0.125 -2 -0.125 0 0 Z " fill="#EEF6F3" transform="translate(130,153.125)"/>
<path d="M0 0 C0.33 0 0.66 0 1 0 C1 9.24 1 18.48 1 28 C5.95 28 10.9 28 16 28 C16 28.66 16 29.32 16 30 C10.39 30 4.78 30 -1 30 C-1.08205558 19.90716336 -0.97875258 10.04969162 0 0 Z " fill="#0066BD" transform="translate(685,184)"/>
<path d="M0 0 C0.33 -0.33 0.66 -0.66 1 -1 C3.35313555 -1.07271741 5.70833668 -1.08370868 8.0625 -1.0625 C9.35285156 -1.05347656 10.64320313 -1.04445312 11.97265625 -1.03515625 C12.97167969 -1.02355469 13.97070312 -1.01195312 15 -1 C15 -0.67 15 -0.34 15 0 C11.04 0 7.08 0 3 0 C3 1.32 3 2.64 3 4 C2.46375 3.71125 1.9275 3.4225 1.375 3.125 C-5.77250694 -0.26066118 -13.74827831 -1.77570175 -21.44921875 0.828125 C-24.48201774 2.33050971 -27.18336433 4.12224288 -30 6 C-28.59335278 2.60060256 -27.16905621 0.88430369 -24 -1 C-15.30639434 -4.23879426 -8.35022584 -3.64373491 0 0 Z " fill="#3483C6" transform="translate(366,168)"/>
<path d="M0 0 C1.99718531 3.51926926 2.85376378 7.08346055 3.8125 11 C5.37019749 17.16651605 7.44072288 22.89028812 10.046875 28.70703125 C11 31 11 31 11 33 C8 32 8 32 6.2109375 28.75390625 C5.5832702 27.36374812 4.97211793 25.96605123 4.375 24.5625 C4.06232178 23.83691895 3.74964355 23.11133789 3.42749023 22.36376953 C1.17002177 16.90432577 -0.06754896 11.94430834 0 6 C-0.0309375 4.205625 -0.0309375 4.205625 -0.0625 2.375 C-0.041875 1.59125 -0.02125 0.8075 0 0 Z " fill="#E5E3DA" transform="translate(87,173)"/>
<path d="M0 0 C2.44068328 1.43861413 3.76815993 2.517725 4.921875 5.1328125 C5.109375 8.3828125 5.109375 8.3828125 4.921875 11.1328125 C4.674375 10.5759375 4.426875 10.0190625 4.171875 9.4453125 C2.24560394 5.88171104 0.28545684 2.97502481 -3.203125 0.8203125 C-10.25885538 -0.86692737 -16.05525674 -0.56205145 -22.2890625 3.2578125 C-24.078125 4.1328125 -24.078125 4.1328125 -28.078125 4.1328125 C-19.66247235 -3.49387271 -10.17364557 -5.01665971 0 0 Z " fill="#2A7DC9" transform="translate(694.078125,167.8671875)"/>
<path d="M0 0 C0.33 0 0.66 0 1 0 C1.1953125 6.0546875 1.1953125 6.0546875 1 8 C-1 10 -1 10 -2.87939453 10.22705078 C-3.62302246 10.21657715 -4.36665039 10.20610352 -5.1328125 10.1953125 C-6.34130859 10.18564453 -6.34130859 10.18564453 -7.57421875 10.17578125 C-8.41597656 10.15902344 -9.25773437 10.14226562 -10.125 10.125 C-11.39923828 10.11146484 -11.39923828 10.11146484 -12.69921875 10.09765625 C-14.79959884 10.07405647 -16.89983444 10.03818483 -19 10 C-18.67 7.69 -18.34 5.38 -18 3 C-17.34 3.33 -16.68 3.66 -16 4 C-16 4.99 -16 5.98 -16 7 C-9.07 7.495 -9.07 7.495 -2 8 C-1.34 5.36 -0.68 2.72 0 0 Z " fill="#525F72" transform="translate(405,204)"/>
<path d="M0 0 C3 1 3 1 4.09765625 3.00390625 C9.684008 17.81791596 9.684008 17.81791596 9 25 C8.34 25.66 7.68 26.32 7 27 C6.74605469 25.88882813 6.49210937 24.77765625 6.23046875 23.6328125 C4.39489656 15.67419369 2.52193539 7.77596745 0 0 Z " fill="#E9E7DF" transform="translate(285,117)"/>
<path d="M0 0 C0.33 0 0.66 0 1 0 C1 4.29 1 8.58 1 13 C5.95 13 10.9 13 16 13 C16 13.66 16 14.32 16 15 C13.35409986 15.02684679 10.70846904 15.04676357 8.0625 15.0625 C6.93038086 15.07506836 6.93038086 15.07506836 5.77539062 15.08789062 C3.85005687 15.09652441 1.92464419 15.05224333 0 15 C-1 14 -1 14 -1.1328125 11.09375 C-1.13023437 9.9078125 -1.12765625 8.721875 -1.125 7.5 C-1.12757813 6.3140625 -1.13015625 5.128125 -1.1328125 3.90625 C-1 1 -1 1 0 0 Z " fill="#0067BA" transform="translate(708,199)"/>
<path d="M0 0 C2.80427204 4.20640806 2.06863218 8.15833712 1.83398438 13.01953125 C1.70818954 17.67827775 2.41126254 20.17286651 5 24 C4.1875 26.3125 4.1875 26.3125 3 28 C-0.86177451 22.12338661 -1.13873813 17.34023028 -1.125 10.375 C-1.12757813 9.06273437 -1.13015625 7.75046875 -1.1328125 6.3984375 C-1 3 -1 3 0 0 Z " fill="#273441" transform="translate(211,275)"/>
<path d="M0 0 C0 0.99 0 1.98 0 3 C-6 6 -6 6 -12 9 C-12.680625 9.391875 -13.36125 9.78375 -14.0625 10.1875 C-16.55628906 11.23328251 -18.55773965 11.19584896 -21.25 11.125 C-22.14203125 11.10695312 -23.0340625 11.08890625 -23.953125 11.0703125 C-24.96632812 11.03550781 -24.96632812 11.03550781 -26 11 C-25.67 9.02 -25.34 7.04 -25 5 C-24.67 5 -24.34 5 -24 5 C-24 6.65 -24 8.3 -24 10 C-15.5326229 7.44777641 -7.80570355 4.15196997 0 0 Z " fill="#E0E0D8" transform="translate(247,243)"/>
<path d="M0 0 C0.33 0.99 0.66 1.98 1 3 C-16.23803726 10.89869719 -16.23803726 10.89869719 -23 11 C-25.2734375 10.03125 -25.2734375 10.03125 -27 9 C-26.30777344 8.93683594 -25.61554688 8.87367188 -24.90234375 8.80859375 C-15.63356035 7.64846935 -8.21461667 4.19708557 0 0 Z " fill="#06192A" transform="translate(158,277)"/>
<path d="M0 0 C2.5625 0.1875 2.5625 0.1875 4.5625 2.1875 C4.5625 3.5075 4.5625 4.8275 4.5625 6.1875 C2.3125 7.375 2.3125 7.375 -0.4375 8.1875 C-2.75 6.8125 -2.75 6.8125 -4.4375 5.1875 C-3.32386364 0.25568182 -3.32386364 0.25568182 0 0 Z " fill="#E1F0EC" transform="translate(238.4375,118.8125)"/>
<path d="M0 0 C0.86625 0.3403125 0.86625 0.3403125 1.75 0.6875 C1.21104623 4.4601764 -0.24535358 6.36962991 -3.25 8.6875 C-5.5 8.4375 -5.5 8.4375 -7.25 7.6875 C-6.91753345 4.61218444 -6.61895244 3.06917494 -4.4375 0.8125 C-2.25 -0.3125 -2.25 -0.3125 0 0 Z " fill="#6F838E" transform="translate(137.25,76.3125)"/>
<path d="M0 0 C1.32 0 2.64 0 4 0 C4.19491452 1.45736087 4.38069358 2.91594593 4.5625 4.375 C4.66691406 5.18710937 4.77132812 5.99921875 4.87890625 6.8359375 C5 9 5 9 4 11 C3.34 11 2.68 11 2 11 C2 10.34 2 9.68 2 9 C1.01 8.67 0.02 8.34 -1 8 C-1.125 2.25 -1.125 2.25 0 0 Z " fill="#4A5761" transform="translate(180,252)"/>
<path d="M0 0 C0.99384397 3.25258026 1.04826731 6.03465371 0.87890625 9.421875 C0.83056641 10.44667969 0.78222656 11.47148437 0.73242188 12.52734375 C0.67634766 13.59082031 0.62027344 14.65429688 0.5625 15.75 C0.51029297 16.82894531 0.45808594 17.90789062 0.40429688 19.01953125 C0.27480531 21.67999422 0.13984639 24.34006452 0 27 C0.66 27 1.32 27 2 27 C2.33 24.69 2.66 22.38 3 20 C3.33 20 3.66 20 4 20 C3.85831863 21.43791516 3.71148957 22.8753237 3.5625 24.3125 C3.48128906 25.11300781 3.40007812 25.91351563 3.31640625 26.73828125 C3 29 3 29 2 32 C1.34 32 0.68 32 0 32 C-0.99083567 28.69442657 -1.12895685 25.68946103 -1.1328125 22.24609375 C-1.13410156 21.14458984 -1.13539063 20.04308594 -1.13671875 18.90820312 C-1.13285156 17.76287109 -1.12898437 16.61753906 -1.125 15.4375 C-1.12886719 14.28830078 -1.13273438 13.13910156 -1.13671875 11.95507812 C-1.13542969 10.85486328 -1.13414062 9.75464844 -1.1328125 8.62109375 C-1.13168457 7.6148999 -1.13055664 6.60870605 -1.12939453 5.57202148 C-1 3 -1 3 0 0 Z " fill="#BDC2C4" transform="translate(157,192)"/>
<path d="M0 0 C0.598125 0.226875 1.19625 0.45375 1.8125 0.6875 C2.4375 3.0625 2.4375 3.0625 2.8125 5.6875 C2.1525 6.3475 1.4925 7.0075 0.8125 7.6875 C-1.8125 7.3125 -1.8125 7.3125 -4.1875 6.6875 C-4.875 4.875 -4.875 4.875 -5.1875 2.6875 C-3.58493056 0.24147296 -2.95482043 -0.4221172 0 0 Z " fill="#E7F2EE" transform="translate(141.1875,120.3125)"/>
<path d="M0 0 C0.99 0 1.98 0 3 0 C4.75390625 2.265625 4.75390625 2.265625 6.5625 5.25 C7.16191406 6.22453125 7.76132812 7.1990625 8.37890625 8.203125 C10.85462723 12.47448939 12.27834831 14.98973044 12 20 C9.07540176 16.31822423 6.71642444 12.34204479 4.3125 8.3125 C3.89677734 7.62349609 3.48105469 6.93449219 3.05273438 6.22460938 C0 1.12669335 0 1.12669335 0 0 Z " fill="#E9E7E0" transform="translate(273,96)"/>
<path d="M0 0 C2.50407421 1.07317466 3.93756461 1.92621272 5.71875 4.03125 C8.74733058 6.64495653 10.79889443 6.59195578 14.75 6.75 C16.50570312 6.83507812 16.50570312 6.83507812 18.296875 6.921875 C19.18890625 6.94765625 20.0809375 6.9734375 21 7 C20.67 7.66 20.34 8.32 20 9 C8.10980917 9.78339471 8.10980917 9.78339471 3.8125 6.75 C2.35076247 4.53219133 1.00152619 2.45829157 0 0 Z " fill="#0C1C2E" transform="translate(163,292)"/>
<path d="M0 0 C0.33 0 0.66 0 1 0 C1.48828125 2.01822917 1.9765625 4.03645833 2.46484375 6.0546875 C2.94846992 8.0585657 2.94846992 8.0585657 4 10 C3.39239518 12.3494053 2.72870472 14.68529088 2 17 C1.67 16.01 1.34 15.02 1 14 C-0.32 13.67 -1.64 13.34 -3 13 C-2.01 8.71 -1.02 4.42 0 0 Z " fill="#355061" transform="translate(184,222)"/>
<path d="M0 0 C1.4540625 0.0309375 1.4540625 0.0309375 2.9375 0.0625 C3.2675 0.7225 3.5975 1.3825 3.9375 2.0625 C1.9575 2.0625 -0.0225 2.0625 -2.0625 2.0625 C-2.03929687 3.03832031 -2.01609375 4.01414063 -1.9921875 5.01953125 C-1.97414063 6.29183594 -1.95609375 7.56414062 -1.9375 8.875 C-1.91429687 10.13957031 -1.89109375 11.40414062 -1.8671875 12.70703125 C-2.0625 16.0625 -2.0625 16.0625 -4.0625 19.0625 C-4.08933987 16.08327407 -4.10926037 13.10428705 -4.125 10.125 C-4.13337891 9.27486328 -4.14175781 8.42472656 -4.15039062 7.54882812 C-4.15361328 6.73994141 -4.15683594 5.93105469 -4.16015625 5.09765625 C-4.16539307 4.3487915 -4.17062988 3.59992676 -4.17602539 2.82836914 C-3.97442503 -0.30749202 -3.18111996 0.06492082 0 0 Z " fill="#0966BB" transform="translate(559.0625,177.9375)"/>
<path d="M0 0 C5.61 0 11.22 0 17 0 C17.33 0.66 17.66 1.32 18 2 C18.99 1.34 19.98 0.68 21 0 C23.6875 -0.125 23.6875 -0.125 26 0 C25.01 0.66 24.02 1.32 23 2 C21.4840625 3.051875 21.4840625 3.051875 19.9375 4.125 C17 6 17 6 15 6 C15 4.35 15 2.7 15 1 C10.05 1.33 5.1 1.66 0 2 C0 1.34 0 0.68 0 0 Z " fill="#4A91CA" transform="translate(480,167)"/>
<path d="M0 0 C1.98 0 3.96 0 6 0 C6.38218767 1.65614657 6.71395102 3.32457024 7 5 C6 6 6 6 3.5625 6.1875 C1 6 1 6 -1 4 C-0.625 1.875 -0.625 1.875 0 0 Z " fill="#506878" transform="translate(187,60)"/>
<path d="M0 0 C0.1875 2.375 0.1875 2.375 0 5 C-3 7 -3 7 -7 7 C-7.1875 4.625 -7.1875 4.625 -7 2 C-4 0 -4 0 0 0 Z " fill="#606E7A" transform="translate(249,230)"/>
<path d="M0 0 C2.475 0.495 2.475 0.495 5 1 C5.625 3.375 5.625 3.375 6 6 C5.34 6.66 4.68 7.32 4 8 C1.875 7.625 1.875 7.625 0 7 C0 4.69 0 2.38 0 0 Z " fill="#79848B" transform="translate(283,153)"/>
<path d="M0 0 C1.67542976 0.28604898 3.34385343 0.61781233 5 1 C4.67 3.31 4.34 5.62 4 8 C0.125 7.125 0.125 7.125 -1 6 C-1.125 3.5 -1.125 3.5 -1 1 C-0.67 0.67 -0.34 0.34 0 0 Z " fill="#6A6E74" transform="translate(93,153)"/>
<path d="M0 0 C3.23490776 0.55774272 4.97855006 1.37211508 7 4 C7 4.99 7 5.98 7 7 C4.15673536 7.23053497 2.53854651 7.35903101 0.125 5.75 C-1 4 -1 4 -0.6875 1.8125 C-0.460625 1.214375 -0.23375 0.61625 0 0 Z " fill="#798C92" transform="translate(132,230)"/>
<path d="M0 0 C2.79177569 2.79177569 2.31213484 4.63183572 2.4140625 8.5390625 C2.45273438 9.84101563 2.49140625 11.14296875 2.53125 12.484375 C2.56270763 13.86457862 2.59395491 15.24478704 2.625 16.625 C2.66317934 18.01304541 2.70223105 19.40106711 2.7421875 20.7890625 C2.83672943 24.19257185 2.92227897 27.59607165 3 31 C2.01 31.33 1.02 31.66 0 32 C0 21.44 0 10.88 0 0 Z " fill="#43839A" transform="translate(228,195)"/>
<path d="M0 0 C0.33 0 0.66 0 1 0 C1 2.64 1 5.28 1 8 C1.66 8 2.32 8 3 8 C3 9.65 3 11.3 3 13 C0.5 11.4375 0.5 11.4375 -2 9 C-2.4375 5.375 -2.4375 5.375 -2 2 C-1.34 1.34 -0.68 0.68 0 0 Z " fill="#A4ABB0" transform="translate(118,263)"/>
<path d="M0 0 C0.66 0.33 1.32 0.66 2 1 C-0.02549575 10.19263456 -0.02549575 10.19263456 -3 14 C-3.99 14 -4.98 14 -6 14 C-4.87548273 11.0280615 -3.77706209 8.66559313 -2 6 C-1.29835358 4.01200182 -0.62627128 2.01301483 0 0 Z " fill="#1C2B38" transform="translate(218,257)"/>
<path d="M0 0 C0.33 0.66 0.66 1.32 1 2 C-0.3984375 4.8203125 -0.3984375 4.8203125 -2.375 8.125 C-3.02210937 9.22070312 -3.66921875 10.31640625 -4.3359375 11.4453125 C-4.88507813 12.28835937 -5.43421875 13.13140625 -6 14 C-6.33 14 -6.66 14 -7 14 C-7.74075615 9.25916064 -5.75302511 6.50470572 -3.2890625 2.671875 C-2 1 -2 1 0 0 Z " fill="#E6E4DB" transform="translate(102,102)"/>
<path d="M0 0 C0.33 0.66 0.66 1.32 1 2 C5.62 2 10.24 2 15 2 C15 2.66 15 3.32 15 4 C10.05 4 5.1 4 0 4 C0 2.68 0 1.36 0 0 Z " fill="#0062B8" transform="translate(761,210)"/>
<path d="M0 0 C0.66 0 1.32 0 2 0 C2 0.66 2 1.32 2 2 C2.66 2 3.32 2 4 2 C4.36923077 7.53846154 4.36923077 7.53846154 2.5 9.875 C1.7575 10.431875 1.7575 10.431875 1 11 C-0.17571451 7.32589215 -0.07366746 3.83070817 0 0 Z " fill="#1B374B" transform="translate(185,220)"/>
<path d="M0 0 C0.33 0.99 0.66 1.98 1 3 C5.29 3 9.58 3 14 3 C14 3.99 14 4.98 14 6 C8.99109914 5.38487182 3.99367864 4.7282448 -1 4 C-0.67 2.68 -0.34 1.36 0 0 Z " fill="#0060B9" transform="translate(732,177)"/>
<path d="M0 0 C0.9590625 0.2784375 0.9590625 0.2784375 1.9375 0.5625 C2.9584375 0.7790625 2.9584375 0.7790625 4 1 C4.33 0.67 4.66 0.34 5 0 C7.35313555 -0.07271741 9.70833668 -0.08370868 12.0625 -0.0625 C13.35285156 -0.05347656 14.64320313 -0.04445312 15.97265625 -0.03515625 C16.97167969 -0.02355469 17.97070312 -0.01195312 19 0 C19 0.33 19 0.66 19 1 C15.04 1 11.08 1 7 1 C7 2.32 7 3.64 7 5 C6.401875 4.690625 5.80375 4.38125 5.1875 4.0625 C2.91043228 2.89790296 2.91043228 2.89790296 0 2 C0 1.34 0 0.68 0 0 Z " fill="#428BC9" transform="translate(362,167)"/>
<path d="M0 0 C0.33 0 0.66 0 1 0 C1.1953125 6.0546875 1.1953125 6.0546875 1 8 C-1 10 -1 10 -4.125 10.125 C-5.548125 10.063125 -5.548125 10.063125 -7 10 C-7 9.34 -7 8.68 -7 8 C-5.35 8 -3.7 8 -2 8 C-1.34 5.36 -0.68 2.72 0 0 Z " fill="#626566" transform="translate(405,204)"/>
<path d="M0 0 C-1.40844718 3.21524305 -3.10344786 5.32183868 -5.625 7.75 C-6.57246094 8.67039062 -6.57246094 8.67039062 -7.5390625 9.609375 C-8.02117187 10.06828125 -8.50328125 10.5271875 -9 11 C-9.33 10.01 -9.66 9.02 -10 8 C-8.71451591 6.66070495 -7.42141845 5.32871357 -6.125 4 C-5.04605469 2.88625 -5.04605469 2.88625 -3.9453125 1.75 C-2 0 -2 0 0 0 Z " fill="#65AFC4" transform="translate(141,96)"/>
<path d="M0 0 C4.455 0.99 4.455 0.99 9 2 C9 2.66 9 3.32 9 4 C9.99 4.33 10.98 4.66 12 5 C4.66666667 5.36666667 4.66666667 5.36666667 1.5 3.625 C0 2 0 2 0 0 Z " fill="#172633" transform="translate(170,291)"/>
<path d="M0 0 C0 3.3 0 6.6 0 10 C-0.99 10.33 -1.98 10.66 -3 11 C-3 7.7 -3 4.4 -3 1 C-1 0 -1 0 0 0 Z " fill="#16273D" transform="translate(183,269)"/>
<path d="M0 0 C0.33 1.32 0.66 2.64 1 4 C1.99 4 2.98 4 4 4 C3.34 5.98 2.68 7.96 2 10 C1.34 10 0.68 10 0 10 C-2.21538462 4.58461538 -2.21538462 4.58461538 -1.125 1.625 C-0.75375 1.08875 -0.3825 0.5525 0 0 Z " fill="#1B485D" transform="translate(157,178)"/>
<path d="M0 0 C0.33 0 0.66 0 1 0 C1.34615998 5.65394631 0.43425238 9.03006806 -2 14 C-2.66 14 -3.32 14 -4 14 C-3.21824485 9.15311808 -1.60155722 4.6233633 0 0 Z " fill="#E5E3DC" transform="translate(289,187)"/>
<path d="M0 0 C0.66 0 1.32 0 2 0 C1.75 2.875 1.75 2.875 1 6 C-1.0625 7.375 -1.0625 7.375 -3 8 C-2.25 2.25 -2.25 2.25 0 0 Z " fill="#CDCCC4" transform="translate(273,201)"/>
<path d="M0 0 C0.99 0 1.98 0 3 0 C3.67119549 1.4562545 4.33681807 2.91507867 5 4.375 C5.556875 5.59316406 5.556875 5.59316406 6.125 6.8359375 C7 9 7 9 7 11 C4 10 4 10 2.83203125 7.71484375 C2.49558594 6.79832031 2.15914063 5.88179687 1.8125 4.9375 C1.46832031 4.01839844 1.12414062 3.09929687 0.76953125 2.15234375 C0.51558594 1.44207031 0.26164062 0.73179687 0 0 Z " fill="#E9E6DB" transform="translate(91,195)"/>
<path d="M0 0 C0.66 0 1.32 0 2 0 C2.33 3.63 2.66 7.26 3 11 C2.01 11.33 1.02 11.66 0 12 C0 8.04 0 4.08 0 0 Z " fill="#6A6A6B" transform="translate(470,185)"/>
<path d="M0 0 C3.18666175 0.27953173 4.91798366 0.62000954 7.5625 2.3125 C7.5625 2.9725 7.5625 3.6325 7.5625 4.3125 C6.5725 3.9825 5.5825 3.6525 4.5625 3.3125 C2.66779184 3.2439505 0.7708166 3.22769628 -1.125 3.25 C-2.11886719 3.25902344 -3.11273437 3.26804688 -4.13671875 3.27734375 C-4.89597656 3.28894531 -5.65523437 3.30054688 -6.4375 3.3125 C-4.13464528 0.65966736 -3.72314367 0.33846761 0 0 Z " fill="#0161BD" transform="translate(753.4375,175.6875)"/>
<path d="M0 0 C0.33 0 0.66 0 1 0 C0.85831863 1.43791516 0.71148957 2.8753237 0.5625 4.3125 C0.48128906 5.11300781 0.40007812 5.91351563 0.31640625 6.73828125 C0 9 0 9 -1 12 C-1.66 12 -2.32 12 -3 12 C-3.33 9.36 -3.66 6.72 -4 4 C-3.67 4.99 -3.34 5.98 -3 7 C-2.34 7 -1.68 7 -1 7 C-0.67 4.69 -0.34 2.38 0 0 Z " fill="#ADB1B4" transform="translate(160,212)"/>
<path d="M0 0 C0.598125 0.763125 1.19625 1.52625 1.8125 2.3125 C3.84004112 4.91335259 3.84004112 4.91335259 5.75 6.6875 C7 8 7 8 7 10 C5.68 9.34 4.36 8.68 3 8 C3 7.34 3 6.68 3 6 C2.34 6 1.68 6 1 6 C0.34 4.35 -0.32 2.7 -1 1 C-0.67 0.67 -0.34 0.34 0 0 Z " fill="#E9E6DF" transform="translate(101,211)"/>
<path d="M0 0 C2.475 0.495 2.475 0.495 5 1 C5 2.32 5 3.64 5 5 C3.35 4.67 1.7 4.34 0 4 C0 2.68 0 1.36 0 0 Z " fill="#DFF1F1" transform="translate(136,192)"/>
<path d="M0 0 C0.33 0.99 0.66 1.98 1 3 C1.66 3 2.32 3 3 3 C3 3.66 3 4.32 3 5 C3.99 5.33 4.98 5.66 6 6 C5.67 6.66 5.34 7.32 5 8 C2.00675737 6.9024777 1.15389099 6.32317108 -0.25 3.375 C-0.4975 2.59125 -0.745 1.8075 -1 1 C-0.67 0.67 -0.34 0.34 0 0 Z " fill="#0E1A29" transform="translate(187,306)"/>
<path d="M0 0 C1.32 0 2.64 0 4 0 C4 1.98 4 3.96 4 6 C2.68 5.34 1.36 4.68 0 4 C0 2.68 0 1.36 0 0 Z " fill="#69717A" transform="translate(180,252)"/>
<path d="M0 0 C0.99 0 1.98 0 3 0 C3 1.32 3 2.64 3 4 C1.02 4.33 -0.96 4.66 -3 5 C-1.6875 2.5 -1.6875 2.5 0 0 Z " fill="#E2E0D3" transform="translate(108,107)"/>
<path d="M0 0 C1.32 1.65 2.64 3.3 4 5 C3.34 6.32 2.68 7.64 2 9 C-1.07692308 4.56923077 -1.07692308 4.56923077 -0.6875 1.6875 C-0.460625 1.130625 -0.23375 0.57375 0 0 Z " fill="#142635" transform="translate(212,294)"/>
<path d="M0 0 C0.99 0 1.98 0 3 0 C3 1.98 3 3.96 3 6 C2.34 6 1.68 6 1 6 C0.34 5.34 -0.32 4.68 -1 4 C-1 1 -1 1 0 0 Z " fill="#203B50" transform="translate(189,214)"/>
<path d="M0 0 C1.73684533 3.47369066 2.30084112 5.07619937 2.625 8.75 C2.69976562 9.54921875 2.77453125 10.3484375 2.8515625 11.171875 C2.90054688 11.77515625 2.94953125 12.3784375 3 13 C2.67 12.34 2.34 11.68 2 11 C1.34 11 0.68 11 0 11 C0 7.37 0 3.74 0 0 Z " fill="#DAD7D1" transform="translate(87,173)"/>
<path d="M0 0 C0.33 0 0.66 0 1 0 C0.33035714 8.16964286 0.33035714 8.16964286 -3 11 C-2.69078116 9.54096742 -2.37751201 8.08279278 -2.0625 6.625 C-1.88847656 5.81289062 -1.71445312 5.00078125 -1.53515625 4.1640625 C-1 2 -1 2 0 0 Z " fill="#E9E8E2" transform="translate(293,175)"/>
<path d="M0 0 C1.32 0 2.64 0 4 0 C3.67 1.32 3.34 2.64 3 4 C3 3.01 3 2.02 3 1 C2.34 1 1.68 1 1 1 C0.731875 1.639375 0.46375 2.27875 0.1875 2.9375 C-1 5 -1 5 -4 6 C-2.84826645 3.53199953 -1.95216435 1.95216435 0 0 Z " fill="#576676" transform="translate(192,204)"/>
<path d="M0 0 C0.66 0.33 1.32 0.66 2 1 C1.25 5.75 1.25 5.75 -1 8 C-1.93065133 5.39417629 -2.14917407 4.35801776 -1.0625 1.75 C-0.711875 1.1725 -0.36125 0.595 0 0 Z " fill="#0F1C29" transform="translate(216,303)"/>
<path d="M0 0 C0 0.66 0 1.32 0 2 C-0.78375 2.268125 -1.5675 2.53625 -2.375 2.8125 C-5.28114923 3.84814432 -5.28114923 3.84814432 -7 7 C-7.1875 4.625 -7.1875 4.625 -7 2 C-4 0 -4 0 0 0 Z " fill="#7E8990" transform="translate(249,230)"/>
<path d="M0 0 C0.66 0 1.32 0 2 0 C1.39009109 3.55780196 0.4216319 6.6828589 -1 10 C-2.31223496 6.06329512 -1.24296256 3.87511856 0 0 Z " fill="#E3DFD9" transform="translate(93,117)"/>
<path d="M0 0 C0.66 0.33 1.32 0.66 2 1 C2 2.32 2 3.64 2 5 C0.35 5 -1.3 5 -3 5 C-1.125 1.125 -1.125 1.125 0 0 Z " fill="#385869" transform="translate(192,60)"/>
<path d="M0 0 C0 1.98 0 3.96 0 6 C-0.99 6.33 -1.98 6.66 -3 7 C-3 5.02 -3 3.04 -3 1 C-1 0 -1 0 0 0 Z " fill="#DEE2DA" transform="translate(124,270)"/>
<path d="M0 0 C0.33 0 0.66 0 1 0 C1 2.64 1 5.28 1 8 C-0.5625 6.75 -0.5625 6.75 -2 5 C-1.74853421 2.86254078 -1.54074221 1.54074221 0 0 Z " fill="#798590" transform="translate(118,263)"/>
<path d="M0 0 C1.32 0 2.64 0 4 0 C3.67 1.32 3.34 2.64 3 4 C1.35 4.33 -0.3 4.66 -2 5 C-1.34 3.35 -0.68 1.7 0 0 Z " fill="#5A656C" transform="translate(141,250)"/>
<path d="M0 0 C0.99 0 1.98 0 3 0 C3 1.65 3 3.3 3 5 C1.68 4.67 0.36 4.34 -1 4 C-0.67 2.68 -0.34 1.36 0 0 Z " fill="#68797F" transform="translate(132,230)"/>
<path d="M0 0 C1.98 0.495 1.98 0.495 4 1 C4 1.99 4 2.98 4 4 C2.35 3.67 0.7 3.34 -1 3 C-0.67 2.01 -0.34 1.02 0 0 Z " fill="#D8EEEE" transform="translate(137,183)"/>
<path d="M0 0 C1.32 0.33 2.64 0.66 4 1 C3.67 2.32 3.34 3.64 3 5 C2.01 4.67 1.02 4.34 0 4 C0 2.68 0 1.36 0 0 Z " fill="#C9E9F0" transform="translate(189,97)"/>
</svg>
