<svg width="510" height="100" viewBox="0 0 510 100" fill="none" xmlns="http://www.w3.org/2000/svg">
<rect width="100" height="100" rx="8" fill="black"/>
<path d="M20 38L47.5 58V85.5L21.6093 66.1997C20.5966 65.4448 20 64.2558 20 62.9927V38Z" fill="white"/>
<path d="M20 38L47.5 58V85.5L21.6093 66.1997C20.5966 65.4448 20 64.2558 20 62.9927V38Z" fill="white"/>
<path d="M46.4836 16.5352C47.8681 15.5278 49.7402 15.5133 51.1401 16.4991L77.2011 34.8506L49.5 54.5L22 34.3506L46.4836 16.5352Z" fill="white"/>
<path d="M51.5 58L79 38V62.9631C79 64.2428 78.3877 65.4453 77.3527 66.198L51.5 85V58Z" fill="white"/>
<path d="M498.274 70.9773V30.5537H509.485V70.9773H498.274ZM503.906 25.3428C502.239 25.3428 500.809 24.7902 499.616 23.6848C498.441 22.5619 497.853 21.2198 497.853 19.6583C497.853 18.1143 498.441 16.7897 499.616 15.6843C500.809 14.5614 502.239 14 503.906 14C505.573 14 506.994 14.5614 508.169 15.6843C509.362 16.7897 509.959 18.1143 509.959 19.6583C509.959 21.2198 509.362 22.5619 508.169 23.6848C506.994 24.7902 505.573 25.3428 503.906 25.3428Z" fill="black"/>
<path d="M466.811 71.7407C464.232 71.7407 461.934 71.2934 459.916 70.3986C457.899 69.4862 456.302 68.144 455.126 66.372C453.969 64.5824 453.39 62.3542 453.39 59.6874C453.39 57.4416 453.802 55.5555 454.626 54.0291C455.451 52.5027 456.574 51.2745 457.995 50.3447C459.416 49.4148 461.03 48.713 462.837 48.2393C464.662 47.7655 466.575 47.4322 468.575 47.2392C470.926 46.9936 472.821 46.7655 474.259 46.5549C475.698 46.3269 476.742 45.9935 477.391 45.5549C478.04 45.1163 478.365 44.4671 478.365 43.6074V43.4495C478.365 41.7827 477.838 40.4932 476.786 39.5808C475.751 38.6685 474.277 38.2123 472.364 38.2123C470.347 38.2123 468.741 38.6597 467.548 39.5545C466.355 40.4318 465.566 41.5371 465.18 42.8705L454.811 42.0283C455.337 39.572 456.372 37.4491 457.916 35.6595C459.46 33.8524 461.451 32.4663 463.89 31.5014C466.346 30.5188 469.189 30.0276 472.417 30.0276C474.663 30.0276 476.812 30.2908 478.865 30.8171C480.935 31.3435 482.769 32.1593 484.365 33.2646C485.979 34.37 487.251 35.7911 488.181 37.5281C489.111 39.2475 489.576 41.309 489.576 43.7127V70.9775H478.944V65.3719H478.628C477.979 66.6352 477.11 67.7493 476.023 68.7142C474.935 69.6617 473.628 70.4073 472.101 70.9512C470.575 71.4776 468.812 71.7407 466.811 71.7407ZM470.022 64.0034C471.671 64.0034 473.128 63.6788 474.391 63.0297C475.654 62.363 476.645 61.4682 477.365 60.3453C478.084 59.2224 478.444 57.9504 478.444 56.5293V52.2395C478.093 52.4676 477.61 52.6781 476.996 52.8711C476.4 53.0466 475.724 53.2133 474.97 53.3712C474.215 53.5115 473.461 53.6431 472.707 53.7659C471.952 53.8712 471.268 53.9677 470.654 54.0554C469.338 54.2484 468.189 54.5555 467.206 54.9765C466.224 55.3976 465.46 55.9678 464.917 56.6872C464.373 57.389 464.101 58.2662 464.101 59.3189C464.101 60.8453 464.653 62.0121 465.759 62.8191C466.882 63.6087 468.303 64.0034 470.022 64.0034Z" fill="black"/>
<path d="M439.764 71.6615C438.027 71.6615 436.535 71.0475 435.29 69.8193C434.061 68.5736 433.447 67.0823 433.447 65.3453C433.447 63.6259 434.061 62.1522 435.29 60.924C436.535 59.6959 438.027 59.0818 439.764 59.0818C441.448 59.0818 442.922 59.6959 444.185 60.924C445.448 62.1522 446.08 63.6259 446.08 65.3453C446.08 66.5033 445.781 67.5648 445.185 68.5298C444.606 69.4772 443.843 70.2404 442.895 70.8194C441.948 71.3808 440.904 71.6615 439.764 71.6615Z" fill="black"/>
<path d="M365.614 70.9775V30.5539H376.299V37.686H376.773C377.615 35.3174 379.019 33.4489 380.984 32.0803C382.949 30.7118 385.3 30.0276 388.037 30.0276C390.809 30.0276 393.169 30.7206 395.116 32.1067C397.064 33.4752 398.362 35.3349 399.011 37.686H399.432C400.257 35.37 401.748 33.519 403.906 32.133C406.082 30.7294 408.652 30.0276 411.617 30.0276C415.389 30.0276 418.451 31.2294 420.802 33.6331C423.17 36.0192 424.355 39.4054 424.355 43.7916V70.9775H413.17V46.0023C413.17 43.7565 412.573 42.0722 411.38 40.9493C410.187 39.8264 408.696 39.265 406.906 39.265C404.871 39.265 403.283 39.9142 402.143 41.2125C401.002 42.4933 400.432 44.1864 400.432 46.2918V70.9775H389.563V45.7654C389.563 43.7828 388.993 42.2038 387.852 41.0283C386.73 39.8528 385.247 39.265 383.405 39.265C382.159 39.265 381.036 39.5808 380.036 40.2124C379.054 40.8265 378.273 41.695 377.694 42.8179C377.115 43.9232 376.825 45.2215 376.825 46.7129V70.9775H365.614Z" fill="black"/>
<path d="M345.435 53.7662V30.5542H356.646V70.9778H345.883V63.6352H345.462C344.549 66.0038 343.032 67.9074 340.909 69.3461C338.803 70.7848 336.233 71.5042 333.198 71.5042C330.496 71.5042 328.118 70.8901 326.066 69.6619C324.013 68.4338 322.407 66.6881 321.25 64.4248C320.109 62.1615 319.53 59.4508 319.513 56.2927V30.5542H330.724V54.2925C330.741 56.6787 331.382 58.5647 332.645 59.9508C333.908 61.3368 335.601 62.0299 337.724 62.0299C339.075 62.0299 340.338 61.7228 341.514 61.1088C342.689 60.4771 343.637 59.5473 344.356 58.3191C345.093 57.091 345.453 55.5733 345.435 53.7662Z" fill="black"/>
<path d="M312.209 30.5537V38.9753H287.866V30.5537H312.209ZM293.393 20.8689H304.604V58.5555C304.604 59.5906 304.762 60.3977 305.077 60.9767C305.393 61.5381 305.832 61.9329 306.393 62.161C306.972 62.3891 307.639 62.5031 308.393 62.5031C308.92 62.5031 309.446 62.4592 309.972 62.3715C310.499 62.2662 310.902 62.1873 311.183 62.1347L312.946 70.4773C312.385 70.6527 311.595 70.8545 310.578 71.0826C309.56 71.3282 308.323 71.4774 306.867 71.53C304.165 71.6353 301.797 71.2756 299.761 70.451C297.744 69.6264 296.173 68.3456 295.051 66.6086C293.928 64.8717 293.375 62.6786 293.393 60.0293V20.8689Z" fill="black"/>
<path d="M255.818 47.6076V70.9775H244.606V30.5539H255.291V37.686H255.765C256.66 35.3349 258.16 33.4752 260.265 32.1067C262.371 30.7206 264.923 30.0276 267.924 30.0276C270.731 30.0276 273.178 30.6417 275.266 31.8698C277.354 33.098 278.977 34.8525 280.135 37.1333C281.293 39.3966 281.872 42.0985 281.872 45.2391V70.9775H270.661V47.2392C270.678 44.7654 270.047 42.8354 268.766 41.4494C267.485 40.0458 265.722 39.344 263.476 39.344C261.967 39.344 260.634 39.6685 259.476 40.3177C258.335 40.9669 257.441 41.9143 256.791 43.16C256.16 44.3881 255.835 45.8707 255.818 47.6076Z" fill="black"/>
<path d="M235.442 17.0796V70.9777H224.046V17.0796H235.442Z" fill="black"/>
<path d="M177.898 70.9777H165.687L184.293 17.0796H198.979L217.559 70.9777H205.347L191.847 29.3962H191.425L177.898 70.9777ZM177.135 49.7922H205.979V58.6875H177.135V49.7922Z" fill="black"/>
<path d="M148.212 86.1364V64.5034H147.87C147.344 65.6263 146.598 66.7404 145.633 67.8458C144.686 68.9336 143.449 69.8371 141.922 70.5565C140.414 71.2758 138.571 71.6355 136.396 71.6355C133.325 71.6355 130.545 70.846 128.053 69.2669C125.579 67.6703 123.614 65.3281 122.158 62.2401C120.719 59.1347 120 55.3274 120 50.8184C120 46.1865 120.746 42.3354 122.237 39.265C123.728 36.1771 125.711 33.8699 128.185 32.3435C130.676 30.7996 133.404 30.0276 136.369 30.0276C138.633 30.0276 140.519 30.4136 142.028 31.1856C143.554 31.94 144.782 32.8874 145.712 34.0278C146.66 35.1507 147.379 36.2561 147.87 37.3438H148.344V30.5539H159.397V86.1364H148.212ZM139.949 62.7139C141.756 62.7139 143.282 62.2226 144.528 61.2401C145.791 60.24 146.756 58.8452 147.423 57.0556C148.107 55.266 148.449 53.1694 148.449 50.7657C148.449 48.3621 148.116 46.2742 147.449 44.5022C146.782 42.7301 145.817 41.3616 144.554 40.3967C143.291 39.4317 141.756 38.9492 139.949 38.9492C138.106 38.9492 136.554 39.4492 135.29 40.4493C134.027 41.4494 133.071 42.8354 132.422 44.6075C131.773 46.3795 131.448 48.4323 131.448 50.7657C131.448 53.1168 131.773 55.1958 132.422 57.003C133.089 58.7926 134.045 60.1962 135.29 61.2138C136.554 62.2138 138.106 62.7139 139.949 62.7139Z" fill="black"/>
</svg>
