<svg width="100" height="100" viewBox="0 0 100 100" fill="none" xmlns="http://www.w3.org/2000/svg">
<rect width="100" height="100" rx="8" fill="black"/>
<path d="M20 38L47.5 58V85.5L21.6093 66.1997C20.5966 65.4448 20 64.2558 20 62.9927V38Z" fill="white"/>
<path d="M20 38L47.5 58V85.5L21.6093 66.1997C20.5966 65.4448 20 64.2558 20 62.9927V38Z" fill="white"/>
<path d="M46.4836 16.5352C47.8681 15.5278 49.7402 15.5133 51.1401 16.4991L77.2011 34.8506L49.5 54.5L22 34.3506L46.4836 16.5352Z" fill="white"/>
<path d="M51.5 58L79 38V62.9631C79 64.2428 78.3877 65.4453 77.3527 66.198L51.5 85V58Z" fill="white"/>
</svg>
